# xmcd CD database file
#
# Track frame offsets:
#	150
#	9961
#	24920
#	40858
#	55807
#	74501
#	91413
#	100973
#	114345
#	128805
#	144840
#	153738
#	166365
#	186333
#
# Disc length: 2608 seconds
#
# Revision: 0
# Processed by: cddbd v1.5.2PL0 Copyright (c) Steve Scherf et al.
# Submitted via: CDex 1.51
#
DISCID=b30a2e0e
DTITLE=los bajip de la gomera - vol.1
DYEAR=1980
DGENRE=Salsa
TTITLE0=mi linda señorita
TTITLE1=viva Panamá
TTITLE2=probablemente
TTITLE3=no por favor
TTITLE4=viva León
TTITLE5=mariquilla
TTITLE6=verano verano
TTITLE7=chaparrita
TTITLE8=ilusión perdida
TTITLE9=la mochila azul
TTITLE10=llega la mañana
TTITLE11=el trovador
TTITLE12=magdalena
TTITLE13=la vieja molienda -bonus track instrumental
EXTD=YEAR: 1980
EXTT0=
EXTT1=
EXTT2=
EXTT3=
EXTT4=
EXTT5=
EXTT6=
EXTT7=
EXTT8=
EXTT9=
EXTT10=
EXTT11=
EXTT12=
EXTT13=
PLAYORDER=
